<svg xmlns="http://www.w3.org/2000/svg" xlink="http://www.w3.org/1999/xlink" width="0" height="0" style="display:none;"><symbol id="vi-toast-icon-correct"><defs><style type="text/css"/></defs><path d="M404.48 660.48L220.16 481.28c-15.36-20.48-51.2-20.48-71.68 0-20.48 20.48-20.48 51.2 0 71.68L363.52 768c20.48 20.48 51.2 20.48 71.68 0L870.4 332.8c20.48-20.48 20.48-51.2 0-71.68-20.48-20.48-51.2-20.48-71.68 0l-394.24 399.36z" p-id="1745" fill="#13227a"/></symbol><symbol id="vi-toast-icon-error"><defs><style type="text/css"/></defs><path d="M562.9 512l386.5-386.5c14.1-14.1 14.1-36.9 0-50.9-14.1-14.1-36.9-14.1-50.9 0L512 461.1 125.5 74.5c-14.1-14.1-36.9-14.1-50.9 0-14.1 14.1-14.1 36.9 0 50.9L461.1 512 74.5 898.5c-14.1 14.1-14.1 36.9 0 50.9 7 7 16.2 10.5 25.5 10.5s18.4-3.5 25.5-10.5L512 562.9l386.5 386.5c7 7 16.2 10.5 25.5 10.5s18.4-3.5 25.5-10.5c14.1-14.1 14.1-36.9 0-50.9L562.9 512z" p-id="3493" fill="#d4237a"/></symbol></svg>